<svg xmlns="http://www.w3.org/2000/svg" width="144.35" height="157.891" viewBox="0 0 144.35 157.891">
  <g id="Grupo_25205" data-name="Grupo 25205" transform="translate(-391.191 467.872)">
    <path id="Caminho_24254" data-name="Caminho 24254" d="M423.99-467.872c1.137.264,2.282.494,3.409.8,5.7,1.532,7.373,5.229,4.774,10.5-.157.319-.328.63-.546,1.048a9.961,9.961,0,0,0,.908.539c9.157,4.2,16.831,10.376,23.676,17.67.632.674,1.227,1.443.474,2.283-.957,1.069-1.794.433-2.569-.405a75.357,75.357,0,0,0-15.01-12.719c-2.894-1.827-5.951-3.4-8.8-5-2.138,2.191-3.948,4.309-6.023,6.125-6.4,5.6-13.768,8.867-22.4,8.727a14.166,14.166,0,0,1-7.891-2.222c-2.93-1.979-3.7-5.131-1.645-8.014a17.605,17.605,0,0,1,4.242-4.175c9.57-6.635,19.945-7.812,30.942-4.234.428.139.855.281,1.462.48a26.979,26.979,0,0,0,1.4-3.255c.572-1.993-.127-3.3-2.194-4.133-3.677-1.473-7.545-1.376-11.4-1.126-2.2.142-4.382.506-6.574.758-.937.108-1.984.246-2.227-1-.257-1.316.665-1.632,1.752-1.777,1.872-.25,3.735-.567,5.6-.857Zm3.155,13.78c-.409-.169-.672-.3-.95-.388-9.741-3.128-18.934-1.99-27.475,3.68a17.082,17.082,0,0,0-3.833,3.5c-1.5,1.872-1.075,3.583,1.077,4.673a13.35,13.35,0,0,0,4.068,1.277c5.94.853,11.371-.829,16.518-3.634A34.254,34.254,0,0,0,427.145-454.092Z" transform="translate(0 0)" fill="silver"/>
    <path id="Caminho_24255" data-name="Caminho 24255" d="M516.2-316.149c-1.717.193-3.243.314-4.746.571a1.532,1.532,0,0,0-.982.871,42.167,42.167,0,0,1-9.587,15.791,2.012,2.012,0,0,0-.126,1.735,106.066,106.066,0,0,1,6.01,20.934c.142.808.29,1.615.408,2.426.138.956-.019,1.823-1.155,1.976-1.009.136-1.386-.506-1.611-1.443-1.379-5.771-2.762-11.542-4.262-17.282-.5-1.911-1.347-3.732-2.1-5.767-.567.394-.972.667-1.368.953-6.043,4.37-12.469,7.882-19.955,9.11a29.668,29.668,0,0,1-22.451-5.334c-7.056-4.9-12.263-11.49-16.706-18.719-7.681-12.5-12.985-26.049-16.906-40.1-2.831-10.149-4.974-20.49-7.4-30.752-.322-1.366.207-2.056,1.608-2.227,17.553-2.14,34.933-1.511,52.01,3.435a74.876,74.876,0,0,1,17.767,7.709c.251-.863.483-1.612.688-2.368a98.622,98.622,0,0,1,11.739-26.958,2.559,2.559,0,0,1,2.77-1.366c12.18,1.222,22.432,6.57,31.321,14.709,7.424,6.8,12.893,14.9,15.186,24.835,2.909,12.6-.611,23.527-9.1,33.005-4.874,5.442-10.39,10.064-17.219,12.948a2.521,2.521,0,0,0-1.015,1.663,101.324,101.324,0,0,1-7.091,21.234c-.128.279-.247.563-.378.841-.4.833-.978,1.387-1.943.947-.936-.426-1-1.191-.6-2.067.532-1.165,1.059-2.333,1.556-3.514A97.2,97.2,0,0,0,516.2-316.149Zm-41-15.483c-.4-.475-.588-.707-.788-.926a133.623,133.623,0,0,0-19.015-17.53c-6.21-4.619-12.743-8.8-19.16-13.14-.9-.606-1.7-1.2-1.011-2.314.649-1.05,1.581-.648,2.422-.12.173.109.357.2.534.3a169.541,169.541,0,0,1,28.084,20.735c.344.31.693.614,1.358,1.2-.17-1.4-.225-2.323-.4-3.222-.679-3.465-1.371-6.927-2.115-10.378-.206-.955-.044-1.8.9-1.923.531-.067,1.192.6,1.726,1.026.2.159.243.557.3.857.834,4.738,1.71,9.469,2.456,14.221a7.356,7.356,0,0,0,1.782,4.056c5.031,5.69,9.91,11.514,14.811,17.318.876,1.037,1.595,2.206,2.667,3.706.316-3,.611-5.538.823-8.085a2.169,2.169,0,0,0-.493-1.23c-4.988-7.183-7.079-15.281-7.493-23.887a72.207,72.207,0,0,1,1.32-17.311c.159-.816.021-1.222-.683-1.588-1.956-1.018-3.846-2.167-5.836-3.11a91.379,91.379,0,0,0-28.176-7.757,147.781,147.781,0,0,0-27.995-.551c-1.661.109-3.312.373-5.1.58,1,4.651,1.878,9.071,2.9,13.457,3.759,16.109,8.664,31.833,16.077,46.679,4.406,8.823,9.592,17.121,17.058,23.749,6.061,5.38,13.006,8.53,21.292,8.049a33.638,33.638,0,0,0,14.842-4.625c2.96-1.692,5.774-3.641,8.676-5.49-.954-1.966-1.69-3.6-2.554-5.17a1.5,1.5,0,0,0-1.264-.584,50.089,50.089,0,0,1-26.947-2.3c-.975-.349-1.959-.718-1.541-2.007.43-1.323,1.466-1,2.418-.648a48.69,48.69,0,0,0,19.953,2.913c1.807-.107,3.6-.439,5.441-.672a3.164,3.164,0,0,0-.14-.66,121.719,121.719,0,0,0-14-20.039,2.872,2.872,0,0,0-1.728-.731c-3.154-.386-6.361-.472-9.469-1.078-4.516-.881-8.965-2.112-13.438-3.209-.9-.22-1.556-.762-1.256-1.758a1.366,1.366,0,0,1,1.961-.908c.679.226,1.388.359,2.076.559A89.808,89.808,0,0,0,475.208-331.632Zm41.807-16.882a86.614,86.614,0,0,0-10.259-32.177c-1.178-2.159-2.612-4.178-3.771-6.346-.262-.491.128-1.331.218-2.011a9.247,9.247,0,0,1,1.993.477c.361.172.587.7.8,1.107,2.68,5.183,5.472,10.314,7.966,15.586,1.375,2.905,2.243,6.05,3.408,9.276a46.2,46.2,0,0,0,3.424-11.926c.147-1.027.424-1.908,1.627-1.78,1.261.134,1.236,1.159,1.151,2.125-.023.255-.038.513-.082.765a58.186,58.186,0,0,1-4.412,14.034,5.315,5.315,0,0,0-.3,2.769c.626,4.669,1.466,9.311,2.007,13.989.35,3.032.316,6.108.453,9.164l.293.264c.211-.335.413-.676.635-1,2.21-3.266,4.664-6.4,6.563-9.835a73.565,73.565,0,0,0,3.768-9.226c.334-.867.756-1.524,1.76-1.276,1.112.275,1.185,1.134.928,2.081-.054.2-.132.388-.192.584a51.745,51.745,0,0,1-13.379,22.337,2.424,2.424,0,0,0-.767,1.249c-.318,2.527-.544,5.065-.805,7.638a7.655,7.655,0,0,0,.756-.273c.554-.268,1.1-.544,1.644-.84a48.494,48.494,0,0,0,12.973-10.777c7.712-8.762,10.866-18.811,8.2-30.368A43.224,43.224,0,0,0,533.1-382.321c-8.653-9.548-19.19-15.774-32.063-17.739a1.8,1.8,0,0,0-2.169.9c-9.195,15.7-14.685,32.356-13.246,50.812a39.521,39.521,0,0,0,6.556,19.291c5.69,8.47,14.017,12.063,23.121,10.1a2.018,2.018,0,0,0,1.845-1.965,99.436,99.436,0,0,0,.941-21.5,4.194,4.194,0,0,0-1.7-3.35,79.588,79.588,0,0,1-16.913-17.81c-.595-.883-.874-1.72.167-2.373.967-.606,1.572.035,2.157.8,1.839,2.4,3.579,4.911,5.637,7.117C510.5-354.748,513.809-351.678,517.015-348.514Zm-9.176,32.769c-5.793-.712-10.4-3.4-14.525-7.408-.487,3.028-.948,5.831-1.373,8.639-.033.214.161.476.283.7,2.307,4.159,4.62,8.314,6.974,12.547A37.765,37.765,0,0,0,507.839-315.745Z" transform="translate(-12.929 -38.153)" fill="silver"/>
    <path id="Caminho_24256" data-name="Caminho 24256" d="M443.531-171.51c-8.162-.1-14.952-3.519-20.942-8.777-6.751-5.926-11.595-13.282-15.376-21.324-2.349-4.994-4.262-10.193-6.344-15.311-.42-1.032-1.055-2.3.538-2.835,1.5-.5,1.727.875,2.068,1.86a116.419,116.419,0,0,0,8.925,20.21c4.244,7.37,9.313,14.031,16.562,18.739a26.957,26.957,0,0,0,15.971,4.67c1.077-.04,2.527-.343,2.61,1.328.088,1.773-1.411,1.36-2.471,1.433C444.56-171.48,444.045-171.51,443.531-171.51Z" transform="translate(-5.404 -145.822)" fill="silver"/>
    <path id="Caminho_24257" data-name="Caminho 24257" d="M635.974-445.977c-1.232,0-2.465-.014-3.7,0-1.018.015-1.929-.176-1.966-1.406-.035-1.173.856-1.356,1.8-1.418,17.611-1.162,33.905,6.485,41.649,25.471a60.129,60.129,0,0,1,2.318,7.31,2.709,2.709,0,0,1-.477,2.184c-.729.8-1.824.146-2.132-1.207a44.015,44.015,0,0,0-5.588-13.75c-6.131-9.769-14.87-15.51-26.38-16.887-1.833-.219-3.679-.328-5.518-.488Z" transform="translate(-140.596 -11.148)" fill="silver"/>
  </g>
</svg>
