<svg xmlns="http://www.w3.org/2000/svg" width="29.538" height="25" viewBox="0 0 29.538 25">
  <g id="Icon_ionic-ios-log-out" data-name="Icon ionic-ios-log-out" transform="translate(-3.375 -5.625)">
    <path id="Caminho_25910" data-name="Caminho 25910" d="M21.938,26.364a.992.992,0,0,0-.984.994,1.276,1.276,0,0,1-1.266,1.278H6.609a1.276,1.276,0,0,1-1.266-1.278V8.892A1.276,1.276,0,0,1,6.609,7.614H19.688a1.276,1.276,0,0,1,1.266,1.278.984.984,0,1,0,1.969,0,3.251,3.251,0,0,0-3.234-3.267H6.609A3.251,3.251,0,0,0,3.375,8.892V27.358a3.251,3.251,0,0,0,3.234,3.267H19.688a3.251,3.251,0,0,0,3.234-3.267A.992.992,0,0,0,21.938,26.364Z" fill="#262626"/>
    <path id="Caminho_25911" data-name="Caminho 25911" d="M26.22,11.121a.97.97,0,0,0-.7-.293.953.953,0,0,0-.7.293,1.01,1.01,0,0,0,0,1.416l4.584,4.593H11.391a1,1,0,0,0,0,2H29.433l-4.472,4.586a1.023,1.023,0,0,0,0,1.416l.007.007a1.007,1.007,0,0,0,.689.279.942.942,0,0,0,.7-.293l5.808-5.895a1.422,1.422,0,0,0,0-2.089Z" transform="translate(0.295)" fill="#262626"/>
  </g>
</svg>
