<svg xmlns="http://www.w3.org/2000/svg" width="80.163" height="68.672" viewBox="0 0 80.163 68.672">
  <g id="Grupo_25434" data-name="Grupo 25434" transform="translate(-1806 -95.328)">
    <g id="Grupo_25419" data-name="Grupo 25419" transform="translate(1806 95.328)">
      <g id="Grupo_25418" data-name="Grupo 25418" transform="translate(0)">
        <path id="Caminho_25905" data-name="Caminho 25905" d="M175.507,212a1.673,1.673,0,0,1-1.576.786q-38.507-.021-77.013-.013a2.408,2.408,0,0,1-.623-.027,1.127,1.127,0,0,1-.947-1.246,1.087,1.087,0,0,1,1.035-1.078.668.668,0,0,1,.233-.016c1.5.354,2.274-.537,3.1-1.606,4.8-6.245,9.653-12.443,14.474-18.669a3.893,3.893,0,0,1,4.305-1.636,1.114,1.114,0,0,0,.834-.43c2.583-3.143,5.141-6.306,7.705-9.464q2.786-3.431,5.573-6.862a3.673,3.673,0,0,1,5.733-.34q4.677,4.62,9.291,9.3c.451.457.8.548,1.331.2a10.843,10.843,0,0,1,1.252-.636,3.677,3.677,0,0,1,5.114,1.506q4.956,8.236,9.892,16.485c2.291,3.82,4.592,7.635,6.862,11.468a1.157,1.157,0,0,0,1.24.687,2.213,2.213,0,0,1,2.19.651Zm-5.819-1.6c-.211-.375-.352-.641-.506-.9q-5.164-8.612-10.331-17.222-2.755-4.59-5.514-9.177c-.515-.854-1.112-1.135-1.873-.78-1.41.657-3.028,1.15-3.055,3.16a.437.437,0,0,1-.042.15,1.216,1.216,0,0,1-1.42.818,1.167,1.167,0,0,1-.867-1.379,5.127,5.127,0,0,1,.342-1.276,1.022,1.022,0,0,0-.331-1.292c-3.023-2.992-6.022-6.007-9.03-9.014-1.228-1.228-1.826-1.2-2.9.123l-9.423,11.6c-1.178,1.451-2.353,2.9-3.585,4.424,1.2.52,2.322.984,3.424,1.495a.889.889,0,0,0,1.107-.15c1.5-1.292,3.034-2.552,4.561-3.816a3.708,3.708,0,0,1,5.343.059q2.627,2.286,5.253,4.574c.832.723,1.669,1.438,2.586,2.227.406-1.4.765-2.669,1.148-3.934.249-.821.844-1.21,1.5-1.022a1.219,1.219,0,0,1,.793,1.676c-.423,1.5-.882,2.993-1.275,4.5a1,1,0,0,0,.218.838q8.008,7.011,16.057,13.975a1.1,1.1,0,0,0,.59.327C164.815,210.4,167.18,210.394,169.687,210.394Zm-11.344-.032.114-.182a6.54,6.54,0,0,1-.553-.392q-11.869-10.313-23.735-20.63c-1.1-.959-1.486-.944-2.624.012-1.357,1.141-2.7,2.3-4.091,3.4a.828.828,0,0,0-.294,1.215q3.747,7.94,7.433,15.909a1.034,1.034,0,0,0,1.1.721c7.329-.022,14.657-.014,21.986-.016C157.9,210.4,158.121,210.373,158.343,210.361Zm-47.225-.018H132.2a2.177,2.177,0,0,0-.088-.354q-3.713-7.959-7.447-15.908a1.5,1.5,0,0,0-.719-.637c-1.9-.841-3.822-1.651-5.739-2.461-1.012-.428-1.4-.317-2.08.558q-7.04,9.045-14.077,18.092c-.162.209-.3.434-.53.763,2.179,0,4.184-.015,6.188.011a.951.951,0,0,0,.976-.573c1.168-2.151,2.37-4.283,3.56-6.422.671-1.206,1.326-2.421,2.016-3.615a1.188,1.188,0,1,1,2.066,1.159c-.161.327-.346.642-.523.961C114.26,204.692,112.717,207.467,111.119,210.344Z" transform="translate(-95.344 -170.181)" fill="#262626"/>
      </g>
      <text id="Itacolomi" transform="translate(5 57.672)" fill="#262626" font-size="17" font-family="SegoeUI, Segoe UI"><tspan x="0" y="0">Itacolomi</tspan></text>
      <text id="RESTAURANTE" transform="translate(11 66.672)" fill="#262626" font-size="6" font-family="SegoeUI, Segoe UI" letter-spacing="0.26em"><tspan x="0" y="0">RESTAURANTE</tspan></text>
    </g>
  </g>
</svg>
