<svg id="Grupo_25422" data-name="Grupo 25422" xmlns="http://www.w3.org/2000/svg" width="17.559" height="21.611" viewBox="0 0 17.559 21.611">
  <path id="Icon_metro-bin" data-name="Icon metro-bin" d="M5.849,8.682V22.189A1.355,1.355,0,0,0,7.2,23.539H19.356a1.355,1.355,0,0,0,1.351-1.351V8.682H5.849ZM9.9,20.838H8.551V11.383H9.9Zm2.7,0H11.252V11.383H12.6Zm2.7,0H13.954V11.383H15.3Zm2.7,0H16.655V11.383h1.351ZM21.045,4.629h-4.39V2.941a1.016,1.016,0,0,0-1.013-1.013H10.915A1.016,1.016,0,0,0,9.9,2.941V4.629H5.512A1.016,1.016,0,0,0,4.5,5.642V7.331H22.058V5.642a1.016,1.016,0,0,0-1.013-1.013Zm-5.74,0H11.252V3.3H15.3V4.629Z" transform="translate(-4.499 -1.928)" fill="#f29c46"/>
</svg>
